<svg width="28" height="27" viewBox="0 0 28 27" fill="none" xmlns="http://www.w3.org/2000/svg">
<path d="M0.75 4.00004C0.75 1.83693 2.50355 0.083374 4.66667 0.083374H18C20.1631 0.083374 21.9167 1.83693 21.9167 4.00004V5.41671H23.3333C25.4964 5.41671 27.25 7.17026 27.25 9.33337V17.3334C27.25 19.4965 25.4964 21.25 23.3333 21.25H21.9167V25.3334C21.9167 25.839 21.6121 26.2947 21.145 26.4882C20.6779 26.6817 20.1403 26.5748 19.7828 26.2173L14.8156 21.25H10C9.37491 21.25 8.78336 21.1031 8.2588 20.8423L8.21722 20.8839C7.85972 21.2414 7.32207 21.3484 6.85498 21.1549C6.38789 20.9614 6.08333 20.5056 6.08333 20V15.9167H4.66667C2.50355 15.9167 0.75 14.1632 0.75 12V4.00004ZM10.3511 18.75H15.3333C15.6649 18.75 15.9828 18.8817 16.2172 19.1162L19.4167 22.3156V20C19.4167 19.3097 19.9763 18.75 20.6667 18.75H23.3333C24.1157 18.75 24.75 18.1158 24.75 17.3334V9.33337C24.75 8.55097 24.1157 7.91671 23.3333 7.91671H21.9167V12C21.9167 14.1632 20.1631 15.9167 18 15.9167H13.1844L10.3511 18.75ZM19.4167 4.00004C19.4167 3.21764 18.7824 2.58337 18 2.58337H4.66667C3.88426 2.58337 3.25 3.21764 3.25 4.00004V12C3.25 12.7824 3.88426 13.4167 4.66667 13.4167H7.33333C8.02369 13.4167 8.58333 13.9764 8.58333 14.6667V16.9823L11.7828 13.7828C12.0172 13.5484 12.3351 13.4167 12.6667 13.4167H18C18.7824 13.4167 19.4167 12.7824 19.4167 12V4.00004Z" fill="#13151A"/>
</svg>
